<?xml version="1.0" standalone="no"?>
<!DOCTYPE svg PUBLIC "-//W3C//DTD SVG 20010904//EN"
 "http://www.w3.org/TR/2001/REC-SVG-20010904/DTD/svg10.dtd">
<svg version="1.0" xmlns="http://www.w3.org/2000/svg"
 width="1000.000000pt" height="1000.000000pt" viewBox="0 0 1000.000000 1000.000000"
 preserveAspectRatio="xMidYMid meet">
<metadata>
Created by potrace 1.14, written by Peter Selinger 2001-2017
</metadata>
<g transform="translate(0.000000,1000.000000) scale(0.100000,-0.100000)"
fill="#000000" stroke="none">
<path d="M1275 6733 c10 -50 57 -248 101 -428 8 -33 16 -69 18 -80 4 -19 40
-175 52 -220 1 -5 14 -59 29 -120 14 -60 37 -157 51 -215 14 -58 27 -114 30
-125 7 -37 13 -59 43 -182 17 -67 32 -132 35 -145 2 -13 32 -140 67 -283 34
-143 69 -294 79 -335 10 -41 34 -145 55 -230 20 -85 39 -166 41 -180 3 -14 7
-31 9 -38 4 -11 112 -464 120 -502 6 -26 46 -194 56 -232 l10 -38 418 0 418 0
11 53 c6 28 32 147 57 262 25 116 49 226 55 245 5 19 11 49 14 65 8 44 6 33
115 526 56 251 104 466 106 479 2 12 6 29 9 38 3 9 7 28 10 42 2 14 18 97 35
185 29 156 58 319 75 433 22 143 24 153 31 160 3 3 6 -3 6 -14 1 -10 3 -28 4
-39 1 -11 6 -45 9 -75 4 -30 12 -91 17 -135 6 -44 13 -96 15 -115 3 -19 12
-78 20 -130 9 -52 17 -104 19 -115 1 -11 12 -74 24 -140 12 -66 29 -156 36
-200 8 -44 17 -91 20 -105 3 -14 10 -50 16 -80 6 -30 30 -154 54 -275 24 -121
74 -373 111 -560 36 -187 67 -344 68 -350 1 -5 8 -43 16 -82 l13 -73 413 0
413 0 15 53 c8 28 19 70 24 92 5 22 35 137 65 255 31 118 83 319 115 445 83
322 168 649 204 785 16 63 39 151 50 195 11 44 21 87 23 95 87 338 157 605
196 755 28 105 52 199 55 210 2 11 31 124 64 250 33 127 60 231 60 233 0 1
-175 2 -389 2 l-389 0 -7 -47 c-5 -27 -9 -52 -11 -58 -1 -5 -14 -68 -29 -140
-14 -71 -27 -137 -29 -145 -2 -8 -6 -31 -10 -50 -3 -19 -8 -44 -10 -55 -2 -11
-23 -114 -45 -230 -23 -115 -49 -241 -57 -279 -8 -38 -28 -137 -44 -220 -16
-83 -32 -162 -35 -176 -2 -13 -7 -40 -10 -60 -5 -35 -10 -61 -20 -110 -2 -14
-7 -41 -10 -60 -3 -19 -10 -57 -15 -85 -5 -27 -12 -66 -15 -85 -3 -19 -10 -62
-16 -95 -15 -83 -16 -88 -34 -195 -9 -52 -18 -108 -21 -125 -6 -34 -6 -36 -30
-200 -9 -66 -20 -124 -24 -128 -4 -4 -7 -2 -7 5 0 7 -11 83 -23 168 -12 85
-23 164 -25 175 -6 45 -17 122 -21 145 -5 32 -23 146 -30 185 -2 17 -6 41 -9
55 -3 14 -7 39 -10 55 -3 17 -7 44 -10 60 -3 17 -15 82 -26 145 -11 63 -29
159 -40 213 -10 53 -21 110 -24 125 -2 15 -20 110 -39 212 -19 102 -38 201
-41 220 -3 19 -8 42 -10 50 -2 8 -7 29 -9 45 -3 17 -8 41 -11 55 -2 14 -6 36
-9 50 -2 14 -15 84 -29 155 -14 72 -36 182 -48 245 -12 63 -23 122 -24 130 -2
8 -4 23 -4 33 -1 16 -27 17 -410 17 l-408 0 -21 -107 c-12 -60 -24 -119 -26
-132 -25 -118 -49 -230 -52 -251 -3 -13 -12 -56 -20 -95 -9 -38 -17 -81 -20
-95 -2 -14 -7 -36 -10 -50 -3 -14 -8 -36 -11 -50 -3 -20 -33 -164 -69 -335 -5
-23 -12 -57 -20 -100 -3 -16 -14 -72 -25 -124 -12 -51 -22 -103 -25 -115 -17
-90 -24 -124 -29 -146 -20 -98 -51 -255 -65 -330 -6 -30 -12 -64 -14 -75 -12
-64 -38 -204 -41 -225 -2 -14 -6 -36 -9 -50 -3 -14 -10 -56 -16 -95 -7 -38
-13 -81 -16 -95 -2 -14 -6 -34 -8 -45 -3 -11 -5 -29 -6 -40 l-1 -20 -8 20 c-5
11 -11 43 -15 70 -3 28 -8 59 -10 70 -2 11 -7 43 -11 70 -5 28 -9 52 -10 55 0
3 -5 30 -9 60 -4 30 -9 62 -11 70 -1 8 -15 85 -29 170 -14 85 -28 166 -31 180
-3 13 -7 42 -11 64 -3 22 -7 43 -9 46 -1 3 -6 28 -9 55 -4 28 -9 57 -11 65 -2
8 -6 31 -9 50 -5 33 -9 50 -21 110 -4 21 -19 105 -31 175 -1 11 -10 56 -18
100 -19 98 -23 118 -41 220 -8 44 -17 89 -19 100 -8 43 -18 101 -22 125 -3 14
-16 88 -31 165 -14 77 -27 151 -29 165 -2 14 -9 45 -14 70 -5 25 -12 56 -14
70 -2 14 -12 71 -22 128 l-17 102 -408 0 c-383 0 -408 -1 -404 -17z"/>
<path d="M5960 5065 l0 -1685 383 0 382 0 0 703 0 702 628 3 627 2 0 -705 0
-705 380 0 380 0 0 1685 0 1685 -380 0 -380 0 0 -648 0 -647 -627 0 -628 0 0
648 0 647 -382 0 -383 0 0 -1685z"/>
</g>
</svg>
